<?xml version="1.0" encoding="UTF-8"?> <svg xmlns="http://www.w3.org/2000/svg" viewBox="0 0 512 452.14"><defs><style>.cls-1{fill:#c0392b;}.cls-2{fill:#bdc3c7;}.cls-3{fill:#95a5a6;}.cls-4{fill:#e74c3c;}.cls-5{fill:#3498db;}.cls-6{fill:#e67e22;}.cls-7{fill:#d35400;}.cls-8{fill:#2980b9;}.cls-9{fill:#f1c40f;}</style></defs><g id="Layer_2" data-name="Layer 2"><g id="Layer_1-2" data-name="Layer 1"><rect class="cls-1" x="369.43" y="44.9" width="67.74" height="135.48"></rect><polygon class="cls-2" points="256 45.69 51.99 248.91 51.99 289.87 51.99 411.18 51.99 452.13 74.83 452.13 256 452.13 437.17 452.13 460.01 452.13 460.01 411.18 460.01 289.87 460.01 248.91 256 45.69"></polygon><polygon class="cls-3" points="256 58.29 51.99 259.94 51.99 303.26 51.99 305.63 256 101.61 460.01 305.63 460.01 303.26 460.01 259.94 256 58.29"></polygon><polygon class="cls-4" points="256 0 0 255.21 32.3 287.51 256 63.02 479.7 287.51 512 255.21 256 0"></polygon><circle class="cls-5" cx="256" cy="203.22" r="44.9" transform="translate(-14.28 19.41) rotate(-4.22)"></circle><rect class="cls-6" x="211.1" y="316.65" width="90.58" height="135.48"></rect><circle class="cls-7" cx="278.84" cy="395.42" r="11.03"></circle><path class="cls-8" d="M256,158.33a44.87,44.87,0,0,0-44.9,44.89,73.16,73.16,0,0,0,1.58,11c4.72-20.48,22.84-33.87,44.11-33.87s38.59,13.39,44.11,33.87c.79-4.72,1.57-8.66,1.57-11C300.9,178.81,281.21,158.33,256,158.33Z"></path><circle class="cls-9" cx="278.84" cy="384.39" r="11.03"></circle><rect class="cls-7" x="211.1" y="293.81" width="90.58" height="22.84"></rect></g></g></svg> 