<?xml version="1.0" encoding="UTF-8"?> <svg xmlns="http://www.w3.org/2000/svg" width="100" height="117" viewBox="0 0 100 117" fill="none"><path fill-rule="evenodd" clip-rule="evenodd" d="M99.8121 54.655H0.187905C0.0634989 53.2089 0 51.7452 0 50.2667C0 22.5052 22.3858 0 50 0C77.6142 0 100 22.5052 100 50.2667C100 51.7452 99.9365 53.2089 99.8121 54.655Z" fill="#009F99"></path><rect x="42.619" y="54.5037" width="13.8889" height="36.7714" fill="#009F99"></rect><path fill-rule="evenodd" clip-rule="evenodd" d="M56.5079 0.42192V54.5037H42.619V0.543876C45.0277 0.185598 47.4923 0 50 0C52.2056 0 54.3778 0.143569 56.5079 0.42192Z" fill="#005854"></path><path fill-rule="evenodd" clip-rule="evenodd" d="M11.1111 94.1572C11.1111 106.773 21.309 117 33.8889 117C46.4687 117 56.6666 106.773 56.6666 94.1572H42.7778C42.7778 99.0805 38.7981 103.072 33.8889 103.072C28.9797 103.072 25 99.0805 25 94.1572H11.1111Z" fill="#009F99"></path></svg> 