<?xml version="1.0" encoding="UTF-8"?> <svg xmlns="http://www.w3.org/2000/svg" width="75" height="87" viewBox="0 0 75 87" fill="none"><mask id="mask0" maskUnits="userSpaceOnUse" x="0" y="0" width="75" height="87"><path fill-rule="evenodd" clip-rule="evenodd" d="M0 0H75V86.8421H0V0Z" fill="white"></path></mask><g mask="url(#mask0)"><path fill-rule="evenodd" clip-rule="evenodd" d="M54.7506 61.4713H52.0826H41.7208L30.735 45.3462V46.1779V61.4713H19.2453V14.1185H34.1012C42.3551 14.1185 45.5296 15.1421 48.5773 17.5104C52.4498 20.582 54.3542 25.5731 54.3542 30.4355C54.3542 35.6831 51.7534 43.3089 43.5916 45.1638L55.7547 61.4713H54.7506ZM0 75.5902H75V0H0V75.5902ZM68.3296 78.7192H70.0724L73.1296 83.7286L73.1509 83.7071L73.0656 78.7192H75V86.6911H73.2469L70.2328 81.8431L70.2115 81.8542L70.2649 86.6911H68.3296V78.7192ZM62.891 85.0537C64.3232 85.0537 65.0175 83.7394 65.0175 82.7161C65.0175 81.6818 64.3232 80.3566 62.8697 80.3566C61.4692 80.3566 60.7104 81.5635 60.7104 82.6839C60.7104 83.9118 61.5332 85.0537 62.891 85.0537ZM62.8586 78.5687C65.2958 78.5687 67.0381 80.4861 67.0381 82.7054C67.0381 84.9243 65.3064 86.8421 62.848 86.8421C60.3575 86.8421 58.6902 84.849 58.6902 82.8022C58.6902 82.274 58.7649 81.6818 59 81.1002C59.4169 80.0659 60.6464 78.5687 62.8586 78.5687ZM55.3129 86.6916H57.3331V78.7192H55.3129V86.6916ZM50.6639 80.5076H49.1033V78.7192H54.2337V80.5076H52.6841V86.6911H50.6639V80.5076ZM44.133 83.9226H45.7897L44.9776 81.197H44.9669H44.9451L44.133 83.9226ZM43.577 85.5385L43.1601 86.6911H40.9905L44.165 78.7192H45.7577L48.8998 86.6911H46.7085L46.324 85.5385H43.577ZM36.2988 82.7269H37.0149C38.2017 82.7269 38.3404 81.9729 38.3404 81.585C38.3404 80.8633 37.8163 80.5076 37.0362 80.5076H36.2988V82.7269ZM34.364 78.7192H36.8651C38.2546 78.7192 38.7889 78.8917 39.3023 79.2904C39.9543 79.8074 40.2752 80.6478 40.2752 81.4663C40.2752 82.3824 39.8045 83.7286 38.3084 83.9767L40.457 86.6911H38.1479L36.3202 84.1161H36.2988V86.6911H34.364V78.7192ZM28.8598 85.0537C30.2924 85.0537 30.9875 83.7394 30.9875 82.7161C30.9875 81.6818 30.2924 80.3566 28.8389 80.3566C27.4387 80.3566 26.6799 81.5635 26.6799 82.6839C26.6799 83.9118 27.5027 85.0537 28.8598 85.0537ZM28.8282 78.5687C31.2653 78.5687 33.0069 80.4861 33.0069 82.7054C33.0069 84.9243 31.276 86.8421 28.8175 86.8421C26.327 86.8421 24.6593 84.849 24.6593 82.8022C24.6593 82.274 24.7344 81.6818 24.9696 81.1002C25.3861 80.0659 26.6155 78.5687 28.8282 78.5687ZM20.5115 80.5076H18.9513V78.7192H24.082V80.5076H22.5321V86.6911H20.5115V80.5076ZM16.2691 81.0465C16.2264 80.7768 16.162 80.2706 15.5424 80.2706C15.1895 80.2706 14.8472 80.5183 14.8472 80.8955C14.8472 81.3695 15.061 81.4663 16.4829 82.1127C17.9574 82.7807 18.332 83.4697 18.332 84.3966C18.332 85.56 17.6693 86.8421 15.5744 86.8421C13.287 86.8421 12.7203 85.3337 12.7203 84.3105V84.052H14.7295C14.7295 84.9785 15.2965 85.1402 15.5526 85.1402C16.034 85.1402 16.3225 84.7415 16.3225 84.375C16.3225 83.8473 15.9913 83.7178 14.7725 83.2009C14.2169 82.9746 12.8377 82.4146 12.8377 80.917C12.8377 79.4198 14.2809 78.5687 15.6064 78.5687C16.3865 78.5687 17.231 78.8594 17.7436 79.4736C18.2142 80.0551 18.2466 80.594 18.268 81.0465H16.2691ZM7.25882 78.7192H11.6517V80.5076H9.19366V81.7467H11.5774V83.5346H9.19366V84.9028H11.6517V86.6911H7.25882V78.7192ZM1.94749 82.7269H2.66357C3.84992 82.7269 3.98903 81.9729 3.98903 81.585C3.98903 80.8633 3.46541 80.5076 2.68491 80.5076H1.94749V82.7269ZM0.012646 78.7192H2.5134C3.90327 78.7192 4.43796 78.8917 4.95052 79.2904C5.60298 79.8074 5.92308 80.6478 5.92308 81.4663C5.92308 82.3824 5.4532 83.7286 3.95702 83.9767L6.10526 86.6911H3.79618L1.96843 84.1161H1.94749V86.6911H0.012646V78.7192Z" fill="white"></path></g></svg> 