<svg width="17" height="23" viewBox="0 0 17 23" fill="none" xmlns="http://www.w3.org/2000/svg">
<path fill-rule="evenodd" clip-rule="evenodd" d="M11.9296 2.2857C11.9296 1.02334 12.9529 0 14.2153 0C15.4776 0 16.501 1.02334 16.501 2.2857C16.501 3.54806 15.4776 4.57141 14.2153 4.57141C12.9529 4.57141 11.9296 3.54806 11.9296 2.2857ZM13.2096 8.38854C13.5375 7.67984 13.481 6.85275 13.0597 6.19526C12.6383 5.53778 11.9105 5.1409 11.1296 5.14284H6.82101C5.48869 5.14191 4.27647 5.91292 3.71246 7.11997L2.87817 8.90282C2.79573 9.08092 2.81045 9.28886 2.91716 9.45357C3.02388 9.61828 3.20765 9.7167 3.40388 9.71424H4.66102C4.88386 9.7185 5.08712 9.58751 5.17531 9.38282L5.78102 8.09139C5.96849 7.68631 6.37465 7.42743 6.82101 7.42854H8.61529L6.39816 12.1714C6.06307 12.8848 6.11924 13.7206 6.54677 14.3828C6.9743 15.045 7.71286 15.4402 8.50101 15.4285H13.6438C13.9594 15.4285 14.2153 15.6843 14.2153 15.9999V21.7142C14.2153 22.0298 14.4711 22.2856 14.7867 22.2856H15.9295C16.2451 22.2856 16.501 22.0298 16.501 21.7142V15.4285C16.501 14.1661 15.4776 13.1428 14.2153 13.1428H10.9924L13.2096 8.38854ZM2.86286 17.1521C3.14388 18.7876 4.55587 19.987 6.2153 19.9999C8.10884 19.9999 9.64386 18.4649 9.64386 16.5714H11.9296C11.9289 19.5783 9.59802 22.0704 6.59777 22.2716C3.59753 22.4729 0.954637 20.3145 0.552396 17.3346C0.150156 14.3546 2.12621 11.5728 5.07245 10.9714V13.3485C3.51249 13.9145 2.58184 15.5165 2.86286 17.1521Z" fill="#3E316B"/>
</svg>
