<svg width="75" height="88" viewBox="0 0 75 88" fill="none" xmlns="http://www.w3.org/2000/svg">
<path fill-rule="evenodd" clip-rule="evenodd" d="M54.7506 61.983H52.0826H41.7208L30.735 45.8579V46.6896V61.983H19.2453V14.6302H34.1012C42.3551 14.6302 45.5296 15.6538 48.5773 18.0221C52.4498 21.0938 54.3542 26.0848 54.3542 30.9473C54.3542 36.1948 51.7534 43.8206 43.5916 45.6755L55.7547 61.983H54.7506ZM0 76.1019H75V0.511719H0V76.1019ZM68.3296 79.2309H70.0724L73.1296 84.2403L73.1509 84.2188L73.0656 79.2309H75V87.2029H73.2469L70.2328 82.3548L70.2115 82.3659L70.2649 87.2029H68.3296V79.2309ZM62.891 85.5655C64.3232 85.5655 65.0175 84.2511 65.0175 83.2279C65.0175 82.1935 64.3232 80.8683 62.8697 80.8683C61.4692 80.8683 60.7104 82.0752 60.7104 83.1956C60.7104 84.4235 61.5332 85.5655 62.891 85.5655ZM62.8586 79.0804C65.2958 79.0804 67.0381 80.9978 67.0381 83.2171C67.0381 85.436 65.3064 87.3538 62.848 87.3538C60.3575 87.3538 58.6902 85.3607 58.6902 83.3139C58.6902 82.7857 58.7649 82.1935 59 81.612C59.4169 80.5776 60.6464 79.0804 62.8586 79.0804ZM55.3129 87.2033H57.3331V79.2309H55.3129V87.2033ZM50.6639 81.0193H49.1033V79.2309H54.2337V81.0193H52.6841V87.2029H50.6639V81.0193ZM44.133 84.4343H45.7897L44.9776 81.7087H44.9669H44.9451L44.133 84.4343ZM43.577 86.0502L43.1601 87.2029H40.9905L44.165 79.2309H45.7577L48.8998 87.2029H46.7085L46.324 86.0502H43.577ZM36.2988 83.2386H37.0149C38.2017 83.2386 38.3404 82.4846 38.3404 82.0967C38.3404 81.375 37.8163 81.0193 37.0362 81.0193H36.2988V83.2386ZM34.364 79.2309H36.8651C38.2546 79.2309 38.7889 79.4034 39.3023 79.8021C39.9543 80.3191 40.2752 81.1595 40.2752 81.978C40.2752 82.8941 39.8045 84.2403 38.3084 84.4885L40.457 87.2029H38.1479L36.3202 84.6279H36.2988V87.2029H34.364V79.2309ZM28.8598 85.5655C30.2924 85.5655 30.9875 84.2511 30.9875 83.2279C30.9875 82.1935 30.2924 80.8683 28.8389 80.8683C27.4387 80.8683 26.6799 82.0752 26.6799 83.1956C26.6799 84.4235 27.5027 85.5655 28.8598 85.5655ZM28.8282 79.0804C31.2653 79.0804 33.0069 80.9978 33.0069 83.2171C33.0069 85.436 31.276 87.3538 28.8175 87.3538C26.327 87.3538 24.6593 85.3607 24.6593 83.3139C24.6593 82.7857 24.7344 82.1935 24.9696 81.612C25.3861 80.5776 26.6155 79.0804 28.8282 79.0804ZM20.5115 81.0193H18.9513V79.2309H24.082V81.0193H22.5321V87.2029H20.5115V81.0193ZM16.2691 81.5582C16.2264 81.2885 16.162 80.7823 15.5424 80.7823C15.1895 80.7823 14.8472 81.03 14.8472 81.4072C14.8472 81.8812 15.061 81.978 16.4829 82.6244C17.9574 83.2924 18.332 83.9814 18.332 84.9083C18.332 86.0717 17.6693 87.3538 15.5744 87.3538C13.287 87.3538 12.7203 85.8455 12.7203 84.8222V84.5637H14.7295C14.7295 85.4902 15.2965 85.6519 15.5526 85.6519C16.034 85.6519 16.3225 85.2532 16.3225 84.8868C16.3225 84.359 15.9913 84.2296 14.7725 83.7126C14.2169 83.4864 12.8377 82.9263 12.8377 81.4287C12.8377 79.9315 14.2809 79.0804 15.6064 79.0804C16.3865 79.0804 17.231 79.3711 17.7436 79.9853C18.2142 80.5668 18.2466 81.1057 18.268 81.5582H16.2691ZM7.25882 79.2309H11.6517V81.0193H9.19366V82.2584H11.5774V84.0464H9.19366V85.4145H11.6517V87.2029H7.25882V79.2309ZM1.94749 83.2386H2.66357C3.84992 83.2386 3.98903 82.4846 3.98903 82.0967C3.98903 81.375 3.46541 81.0193 2.68491 81.0193H1.94749V83.2386ZM0.012646 79.2309H2.5134C3.90327 79.2309 4.43796 79.4034 4.95052 79.8021C5.60298 80.3191 5.92308 81.1595 5.92308 81.978C5.92308 82.8941 5.4532 84.2403 3.95702 84.4885L6.10526 87.2029H3.79618L1.96843 84.6279H1.94749V87.2029H0.012646V79.2309Z" fill="white"/>
</svg>
