<svg width="23" height="23" viewBox="0 0 23 23" fill="none" xmlns="http://www.w3.org/2000/svg">
<path fill-rule="evenodd" clip-rule="evenodd" d="M14.5157 20.6924L13.6791 22.3647C13.395 22.9327 12.7042 23.163 12.1362 22.879C11.5681 22.5949 11.3378 21.9041 11.6218 21.336L16.2219 12.1359C16.6457 11.2883 17.8553 11.2883 18.2791 12.1359L22.8792 21.336C23.1633 21.9041 22.933 22.5949 22.3649 22.879C21.7968 23.163 21.106 22.9327 20.822 22.3647L19.9877 20.6962L14.5157 20.6924ZM8.58933 12.3226C9.2273 12.7884 9.88556 13.1543 10.5419 13.4315C10.8668 13.5687 11.1657 13.673 11.4296 13.7484C11.5773 13.7906 11.673 13.8127 11.7076 13.8191C12.3323 13.9336 12.7459 14.5329 12.6313 15.1577C12.5168 15.7824 11.9175 16.196 11.2928 16.0814C10.9333 16.0155 10.3615 15.8521 9.64704 15.5503C8.71988 15.1587 7.7952 14.6279 6.91064 13.9368C5.97442 14.6725 4.97977 15.2247 3.9833 15.6215C3.34553 15.8755 2.83621 16.0183 2.51699 16.0796C1.89326 16.1994 1.29049 15.7909 1.17067 15.1672C1.05085 14.5435 1.45935 13.9407 2.08308 13.8209C2.11533 13.8147 2.20213 13.7944 2.33543 13.757C2.5727 13.6905 2.84103 13.6007 3.13244 13.4846C3.83592 13.2045 4.54081 12.8266 5.21177 12.3384C3.99958 10.9696 3.02638 9.28511 2.35801 7.26064C2.1589 6.65752 2.48641 6.00718 3.08952 5.80807C3.69264 5.60895 4.34298 5.93646 4.5421 6.53958C5.10372 8.24071 5.90397 9.63735 6.89252 10.7668C8.17389 9.22436 8.97976 7.20199 9.1611 4.60007H1.15286C0.516154 4.60007 0 4.08962 0 3.45006C0 2.81492 0.515798 2.30004 1.15286 2.30004H5.75009V1.14882C5.75009 0.514344 6.26055 0 6.90011 0C7.53525 0 8.05013 0.516508 8.05013 1.14882V2.30004H12.6474C13.2841 2.30004 13.8002 2.81049 13.8002 3.45006C13.8002 4.08519 13.2844 4.60007 12.6474 4.60007H11.4657C11.2694 7.81311 10.2428 10.3717 8.58933 12.3226ZM18.8373 18.3953L17.2516 15.2239L15.666 18.3932L18.8373 18.3953Z" fill="#3E316B"/>
</svg>
