<svg width="77" height="78" viewBox="0 0 77 78" fill="none" xmlns="http://www.w3.org/2000/svg">
<path fill-rule="evenodd" clip-rule="evenodd" d="M0 38.9883C0 17.7253 17.237 0.488281 38.5 0.488281C48.7108 0.488281 58.5035 4.54452 65.7236 11.7647C72.9438 18.9848 77 28.7774 77 38.9883C77 60.2512 59.763 77.4883 38.5 77.4883C17.237 77.4883 0 60.2512 0 38.9883ZM31.4572 55.9914L53.6662 41.9345C54.4973 41.395 55 40.4635 55 39.463C55 38.4626 54.4973 37.531 53.6662 36.9915L31.381 22.9346C30.5033 22.3736 29.3945 22.3391 28.4845 22.8445C27.5745 23.3499 27.0063 24.3157 27.0002 25.3675V53.5585C26.9879 54.6359 27.5667 55.6312 28.5025 56.1421C29.4384 56.6529 30.5767 56.5949 31.4572 55.9914Z" fill="#009F99"/>
</svg>
