<svg width="156" height="156" viewBox="0 0 156 156" fill="none" xmlns="http://www.w3.org/2000/svg">
<path id="play video icon" fill-rule="evenodd" clip-rule="evenodd" d="M0 78C0 34.9218 34.9218 0 78 0C98.6869 0 118.526 8.21783 133.154 22.8457C147.782 37.4735 156 57.3131 156 78C156 121.078 121.078 156 78 156C34.9218 156 0 121.078 0 78ZM63.726 111.384L109.2 82.992C110.902 81.9022 111.931 80.0207 111.931 78C111.931 75.9793 110.902 74.0978 109.2 73.008L63.57 44.616C61.7728 43.4828 59.5026 43.4131 57.6392 44.4339C55.7759 45.4547 54.6125 47.4054 54.6 49.53V106.47C54.5749 108.646 55.7599 110.657 57.6761 111.688C59.5924 112.72 61.923 112.603 63.726 111.384Z" fill="white"/>
</svg>
