<?xml version="1.0" encoding="utf-8"?>
<!-- Generator: Adobe Illustrator 24.0.1, SVG Export Plug-In . SVG Version: 6.00 Build 0)  -->
<svg version="1.1" id="Слой_1" xmlns="http://www.w3.org/2000/svg" xmlns:xlink="http://www.w3.org/1999/xlink" x="0px" y="0px"
	 viewBox="0 0 77 78" style="enable-background:new 0 0 77 78;" xml:space="preserve">
<style type="text/css">
	.st0{fill-rule:evenodd;clip-rule:evenodd;fill:#D06528;}
</style>
<path class="st0" d="M0,39C0,17.7,17.2,0.5,38.5,0.5c10.2,0,20,4.1,27.2,11.3C72.9,19,77,28.8,77,39c0,21.3-17.2,38.5-38.5,38.5
	S0,60.3,0,39z M31.5,56l22.2-14.1c0.8-0.5,1.3-1.5,1.3-2.5c0-1-0.5-1.9-1.3-2.5L31.4,22.9c-0.9-0.6-2-0.6-2.9-0.1
	c-0.9,0.5-1.5,1.5-1.5,2.5v28.2c0,1.1,0.6,2.1,1.5,2.6C29.4,56.7,30.6,56.6,31.5,56z"/>
</svg>
