<svg width="21" height="20" viewBox="0 0 21 20" fill="none" xmlns="http://www.w3.org/2000/svg">
<path fill-rule="evenodd" clip-rule="evenodd" d="M15.4164 13.8391L19.8607 18.2888C20.0592 18.5096 20.0494 18.8475 19.8385 19.0564L19.0607 19.8351C18.9564 19.9404 18.8144 19.9996 18.6663 19.9996C18.5182 19.9996 18.3762 19.9404 18.2719 19.8351L13.8275 15.3854C13.7046 15.2622 13.593 15.1282 13.4942 14.9849L12.6609 13.8725C11.2821 14.9748 9.56987 15.575 7.80541 15.5745C4.16948 15.5871 1.01 13.076 0.197472 9.52771C-0.615061 5.97945 1.1362 2.34105 4.41447 0.766556C7.69273 -0.807938 11.6231 0.101679 13.8786 2.95689C16.1342 5.8121 16.1129 9.85089 13.8275 12.6822L14.9386 13.4498C15.1121 13.5609 15.2724 13.6916 15.4164 13.8391ZM2.24995 7.78748C2.24995 10.8594 4.73721 13.3496 7.80541 13.3496C9.2788 13.3496 10.6919 12.7636 11.7337 11.7205C12.7756 10.6774 13.3609 9.26266 13.3609 7.78748C13.3609 4.71559 10.8736 2.22534 7.80541 2.22534C4.73721 2.22534 2.24995 4.71559 2.24995 7.78748Z" fill="#3E316B"/>
</svg>
