<svg width="16" height="16" viewBox="0 0 16 16" fill="none" xmlns="http://www.w3.org/2000/svg">
<path fill-rule="evenodd" clip-rule="evenodd" d="M4.74074 1.77778H1.77778V4.74074C1.77778 5.23166 1.37981 5.62963 0.888889 5.62963C0.397969 5.62963 0 5.23166 0 4.74074V0.888889C0 0.397969 0.397969 0 0.888889 0H4.74074C5.23166 0 5.62963 0.397969 5.62963 0.888889C5.62963 1.37981 5.23166 1.77778 4.74074 1.77778ZM4.74074 13.9259H1.77778V10.963C1.77778 10.472 1.37981 10.0741 0.888889 10.0741C0.397969 10.0741 0 10.472 0 10.963V14.8148C0 15.3057 0.397969 15.7037 0.888889 15.7037H4.74074C5.23166 15.7037 5.62963 15.3057 5.62963 14.8148C5.62963 14.3239 5.23166 13.9259 4.74074 13.9259ZM13.9259 1.77778H10.963C10.472 1.77778 10.0741 1.37981 10.0741 0.888889C10.0741 0.397969 10.472 0 10.963 0H14.8148C15.3057 0 15.7037 0.397969 15.7037 0.888889V4.74074C15.7037 5.23166 15.3057 5.62963 14.8148 5.62963C14.3239 5.62963 13.9259 5.23166 13.9259 4.74074V1.77778ZM10.963 13.9259H13.9259V10.963C13.9259 10.472 14.3239 10.0741 14.8148 10.0741C15.3057 10.0741 15.7037 10.472 15.7037 10.963V14.8148C15.7037 15.3057 15.3057 15.7037 14.8148 15.7037H10.963C10.472 15.7037 10.0741 15.3057 10.0741 14.8148C10.0741 14.3239 10.472 13.9259 10.963 13.9259Z" fill="white"/>
</svg>
